<svg width="30" height="30" viewBox="0 0 30 30" fill="none" xmlns="http://www.w3.org/2000/svg">
<path d="M23.75 11.25V21.25C23.75 23.607 23.75 24.7855 23.0177 25.5177C22.2855 26.25 21.107 26.25 18.75 26.25H17.5H12.5H11.25C8.89298 26.25 7.71446 26.25 6.98224 25.5177C6.25 24.7855 6.25 23.607 6.25 21.25V11.25" fill="#7C2F02"/>
<path d="M23.75 11.25V21.25C23.75 23.607 23.75 24.7855 23.0177 25.5177C22.2855 26.25 21.107 26.25 18.75 26.25H17.5H12.5H11.25C8.89298 26.25 7.71446 26.25 6.98224 25.5177C6.25 24.7855 6.25 23.607 6.25 21.25V11.25" stroke="#7C2F02" stroke-width="2" stroke-linejoin="round"/>
<path d="M3.75 13.7501L9.375 8.75008L13.3391 5.22644C14.2863 4.38448 15.7137 4.38448 16.6609 5.22644L20.625 8.75008L26.25 13.7501" fill="#7C2F02"/>
<path d="M3.75 13.7501L9.375 8.75008L13.3391 5.22644C14.2862 4.38448 15.7138 4.38448 16.6609 5.22644L20.625 8.75008L26.25 13.7501" stroke="#7C2F02" stroke-width="2" stroke-linecap="round" stroke-linejoin="round"/>
<path d="M12.5 26.25V21.25C12.5 19.8693 13.6193 18.75 15 18.75C16.3807 18.75 17.5 19.8693 17.5 21.25V26.25" fill="white"/>
</svg>
